<?xml version="1.0" encoding="utf-8"?>
<!-- Generator: Adobe Illustrator 16.0.0, SVG Export Plug-In . SVG Version: 6.00 Build 0)  -->
<!DOCTYPE svg PUBLIC "-//W3C//DTD SVG 1.1//EN" "http://www.w3.org/Graphics/SVG/1.1/DTD/svg11.dtd">
<svg version="1.1" id="Layer_1" xmlns="http://www.w3.org/2000/svg" xmlns:xlink="http://www.w3.org/1999/xlink" x="0px" y="0px"
	 width="2551.18px" height="1164px" viewBox="0 0 2551.18 1164" enable-background="new 0 0 2551.18 1164" xml:space="preserve">
<g>
	<g>
		<path fill="#EC646C" d="M1235.588,1027.26h5.736v-17.594l7.938-7.941l4.632,4.635h6.837l13.121-13.121h10.697v34.021h6.617
			v-68.759h2.425v8.603h5.297v-8.603h1.983v68.759h9.481v-18.691h3.749V969.53h10.15v2.454h17.839l1.124-18.119h3.75v-12.569h3.53
			v13.013h3.968l6.394,63.299v-30.661h3.312v-7.056h7.056v7.281h3.749v40.088h3.749v-0.613l6.51-6.504l6.285,6.285v-31.54h3.53
			v-5.071h5.508l4.636,4.635v32.809h2.208v-9.652h4.404v-21.834h6.618v-2.645h2.87v3.523h3.749v30.607h6.503v-9.121l-27.048-181.842
			c-24.314-6.4-47.627-13.373-69.692-20.939c3.333,39.508,6.646,73.602,9.959,102.088h-27.525
			c1.759-23.17,5.767-57.955,11.942-104.092c-23.619-8.283-45.87-17.199-66.523-26.707l-29.218,220.375h2.148V1027.26z"/>
		<path fill="#EC646C" d="M1461.653,958.501h18.303v4.41h4.628v64.349h55.14v-2.816h6.837v2.816h16.986v-16.933l11.541-11.54
			v-33.081h-48.63V861.679c-27.545-4.358-54.293-9.369-79.979-15.116v116.566h15.174V958.501z"/>
		<polygon fill="#EC646C" points="1724.983,970.627 1724.983,995.33 1728.732,995.33 1728.732,1027.26 1733.163,1027.26 
			1733.163,965.706 1720.137,965.706 1720.137,970.627 		"/>
		<path fill="#EC646C" d="M1596.628,1027.26h26.904v-17.594h10.144v17.594h3.749v-3.695h5.958v3.695h15.214v-8.992h13.899v-25.8
			l10.033-10.041l4.963,6.067h6.837v38.766h2.645v-10.757h4.854v10.757h3.088v-33.477h2.202v-22.27h2.651v-5.808h-35.296v-67.627
			h49.958v-18.405c-44.642-1.268-88.097-4.253-129.957-8.875v147.252h2.154V1027.26z"/>
		<path fill="#EC646C" d="M1763.033,997.096h45.323v-3.967h15.214v3.307h5.29v-36.83h5.296v67.266h1.991V888.57
			c11.002,0,17.812,1.963,20.408,5.889c2.598,3.927,3.906,14.131,3.906,30.594v63.884l21.11-5.071v18.963h4.192v-4.41l3.088-3.53
			h5.732v32.372h0.144v-12.031h3.967v3.088h4.41v-3.088h3.088v8.82h6.619v-33.523h11.466v33.959h5.732V993.17l4.724-4.725v-42.31
			c0-24.825-0.654-39.979-1.983-45.501c-1.329-5.5-4.724-11.553-10.163-18.139c-2.434-2.944-6.074-5.582-10.593-7.995
			c-45.194,3.864-92.023,5.931-140.039,5.931c-5.297,0-10.532-0.123-15.808-0.164v141.246l6.885-6.879V997.096z"/>
		<path fill="#EC646C" d="M2002.791,953.034h10.149v60.429h9.039v9.045h4.628l5.297-85.139h3.749V924.8h3.531v13.013h3.967
			l6.395,63.299V970.45h3.312v-7.056h7.055v7.281h3.749v48.301h3.75v-8.826l6.51-6.504l5.392,5.393V850.387
			c-25.767,5.358-52.453,10.064-79.979,14.053v127.633h3.456V953.034z"/>
		<path fill="#EC646C" d="M2120.233,1011.363v-26.135h5.623v39.038h6.619v-77.634h17.866v-4.628h18.302v4.41h4.629v74.546h4.635
			v-3.967h7.717v4.628h8.882l0.164-1.896v-2.958h0.259l3.912-44.784h28.609l2.795,35.964h5.003v3.967h3.975v15.345h13.013v-33.429
			l21.281-21.281v44.662h5.623v-15.657h6.176v20.953h7.28v-8.166h3.081v8.603h6.4l4.315,4.315h3.074v-7.621h2.754v-0.859
			l-34.28-230.559c-19.57,8.875-40.572,17.178-62.739,24.969c3.395,40.429,6.769,75.237,10.143,104.256h-27.525
			c1.738-22.863,5.665-57.034,11.697-102.231c-23.066,7.914-47.442,15.194-72.943,21.819l-22.843,172.189v8.65L2120.233,1011.363z"
			/>
	</g>
	<g>
		<g>
			<g>
				<path fill="#010202" d="M1282.82,649.27c0.062-0.104,0.143-0.205,0.204-0.287C1283.577,648.042,1282.779,649.31,1282.82,649.27z
					"/>
				<path fill="#010202" d="M1283.024,450.049c-0.062-0.123-0.122-0.205-0.184-0.327c0.122,0.226,0.286,0.511,0.389,0.716
					C1283.147,450.314,1283.086,450.172,1283.024,450.049z"/>
				<path fill="#010202" d="M1289.937,165.022C1290.693,164.102,1289.139,165.922,1289.937,165.022L1289.937,165.022z"/>
				<g>
					<path fill="#C7CFE2" d="M560.826,813.05C560.438,812.865,560.315,812.824,560.826,813.05L560.826,813.05z"/>
					<path fill="#C7CFE2" d="M378.682,276.678c-14.178,21.949-43.271,65.254-52.044,78.955c-5.978,8.215-9.687,12.358-16.885,21.957
						c-4.212,4.825-8.309,11.273-12.194,16.365c-6.83,8.979-13.395,18.058-19.632,27.484
						c-14.049,21.227-25.255,44.621-33.087,68.813c-11.881,36.687-15.48,75.827-10.246,114.048
						c5.133,37.422,18.854,73.475,37.668,106.071c37.463,64.948,94.334,116.686,154.579,160.161
						c63.066,45.215,131.634,82.453,201.98,114.968c34.621,16.013,69.774,30.858,105.336,44.601
						c13.354,5.153,26.769,10.225,40.266,15.092l-88.895-183.311c-11.125-3.742-22.208-7.566-33.23-11.554
						c-30.654-11.104-60.96-23.271-90.612-36.87c-0.409-0.184-0.675-0.307-0.879-0.409c0.184,0.103,0.429,0.204,0.695,0.327
						c-1.125-0.512-6.523-2.965-6.504-3.006c0.266-0.613,0.532-1.227,0.798-1.861c1.575-3.559,3.17-7.157,4.744-10.736
						c3.824-8.67,7.648-17.341,11.473-26.031c0.45-0.982,1.411-3.375,1.411-3.375s1.472,0.635,2.086,0.879
						c7.525,3.068,15.071,6.095,22.637,9.02c17.689,6.83,35.542,13.107,53.518,19.1c1.021,0.348,2.045,0.654,3.067,1.002
						l-74.58-153.822c-1.165-0.368-2.331-0.736-3.518-1.125c-36.277-12.045-72.575-26.687-104.436-48.098
						c-7.485-5.03-14.663-10.49-21.35-16.543c-6.319-5.705-12.944-12.106-17.28-19.488c-4.131-7.056-6.912-14.151-7.853-22.332
						c-0.961-8.343-0.613-17.463,1.268-25.643c2.045-8.896,4.417-17.506,7.689-26.053c5.031-13.129,12.229-25.398,16.789-38.691
						c6.708-18.425,13.231-36.85,16.83-56.175 M343.161,647.184l29.263-18.631l2.373,3.088
						c10.04,13.865,21.124,26.605,33.619,38.323c25.357,23.763,54.6,42.679,84.661,59.897c-7.096,12.064-14.172,24.15-21.268,36.216
						c-23.987-15.092-47.279-31.165-68.69-49.795c-22.72-19.774-42.208-41.901-58.752-67.013c-0.02-0.021-0.061-0.082-0.204-0.308
						C343.55,647.939,343.161,647.184,343.161,647.184 M362.486,420.111c5.46-8.794,10.347-17.73,15.112-26.912l0.654-1.37
						c0,0,7.28,3.292,9.857,4.458c4.028,1.82,8.057,3.64,12.085,5.46c-5.317,11.431-10.756,22.597-17.035,33.537
						c-7.259,12.679-14.744,25.276-20.613,38.671c-10.654,24.191-17.586,50.612-16.277,77.217
						c-10.348,0.184-20.716,0.389-31.083,0.594c-0.143-35.828,11.636-70.225,28.772-101.328c-0.225,0.389-0.307,0.512,0.205-0.389
						c0.532-0.961,0.43-0.757,0.184-0.327C350.032,439.641,356.371,429.967,362.486,420.111z"/>
				</g>
				<path fill="#EC6567" d="M1063.109,470.989c0-138.894-113.004-251.897-251.877-251.897
					c-138.895,0-251.898,113.004-251.898,251.897c0,40.694,9.713,79.161,26.932,113.229l224.967,463.92l224.986-464.002
					C1053.396,550.109,1063.109,511.664,1063.109,470.989z M811.232,610.373c-76.871,0-139.405-62.534-139.405-139.384
					c0-76.87,62.534-139.405,139.405-139.405c76.85,0,139.384,62.535,139.384,139.405
					C950.596,547.839,888.082,610.373,811.232,610.373z"/>
			</g>
		</g>
		<path fill="#D35660" d="M1159.689,432.757c0.123-1.513,0.226-3.006,0.348-4.54c3.456-50.49-6.278-101.45-28.629-147.461
			c-0.185-0.328-0.348-0.717-0.532-1.064c-5.705-11.574-12.208-22.842-19.488-33.701c-1.37-2.045-2.781-4.068-4.213-6.094
			c-7.627-10.715-16.012-21.043-25.214-30.838c-3.006-3.17-6.114-6.318-9.305-9.447c-1.902-1.82-3.865-3.681-5.849-5.562
			c-3.66-3.313-7.402-6.625-11.288-9.836c-1.942-1.595-3.886-3.19-5.849-4.703c-121.594-95.807-297.235-79.447-399.054,37.136
			c-1.636,1.901-3.271,3.824-4.847,5.767c-10.593,12.721-19.591,26.237-27.606,40.102c105.622-91.123,264.454-95.663,375.413-3.64
			c110.96,92.063,135.807,249.015,65.787,369.649c12.126-10.45,23.741-21.779,34.314-34.52c1.615-1.943,3.189-3.886,4.724-5.849
			c7.75-9.815,14.703-19.938,21.002-30.409c2.27-3.742,4.417-7.588,6.503-11.433c0.47-0.88,0.94-1.737,1.391-2.617
			c1.759-3.292,3.415-6.585,5.01-9.938c2.822-5.91,5.439-11.881,7.832-17.894c3.62-9.038,6.729-18.2,9.366-27.464
			c0.593-2.065,1.166-4.11,1.677-6.176c1.452-5.521,2.781-11.104,3.906-16.688c0.143-0.735,0.286-1.451,0.408-2.167
			c0.655-3.436,1.228-6.81,1.759-10.286c0.286-1.596,0.512-3.252,0.736-4.888C1158.688,443.063,1159.26,437.91,1159.689,432.757z"/>
		<g>
			<path fill="#464756" d="M918.429,576.1c-2.311,2.229-4.703,4.418-7.157,6.545c-2.495,2.105-5.01,4.109-7.587,6.053l25.398,29.733
				l14.724-12.597L918.429,576.1L918.429,576.1z"/>
			<path fill="#717485" d="M918.429,576.1c54.375-53.005,58.997-139.854,8.957-198.422
				c-52.167-61.062-143.944-68.281-204.987-16.114c-61.042,52.126-68.261,143.925-16.114,204.966
				c50.062,58.568,136.562,67.586,197.4,22.168c2.577-1.943,5.092-3.947,7.587-6.053C913.726,580.518,916.118,578.329,918.429,576.1
				z M767.429,577.409c-0.144-0.062-0.286-0.123-0.429-0.204c-4.684-2.209-9.203-4.725-13.579-7.588
				c-0.839-0.531-1.656-1.084-2.475-1.656c-4.335-2.965-8.486-6.277-12.474-9.897c-1.289-1.187-2.557-2.413-3.805-3.64
				c-0.756-0.777-1.513-1.533-2.249-2.332c-1.37-1.431-2.72-2.924-4.008-4.438c-0.675-0.776-1.309-1.554-1.923-2.33
				c-38.997-48.016-33.455-118.322,12.557-159.691c0.716-0.654,1.492-1.309,2.249-1.963
				c48.854-41.718,122.248-35.951,163.965,12.903c41.738,48.833,35.95,122.228-12.883,163.965c-0.757,0.654-1.534,1.288-2.311,1.923
				c-3.865,3.148-7.874,5.991-12.024,8.568c-1.493,0.939-3.006,1.799-4.54,2.637c-0.368,0.205-0.695,0.41-1.043,0.594
				c-1.288,0.716-2.597,1.391-3.927,2.045c-2.352,1.166-4.744,2.25-7.096,3.23c-3.6,1.493-7.239,2.803-10.94,3.927
				c-0.817,0.226-1.615,0.471-2.454,0.695c-2.188,0.634-4.417,1.165-6.646,1.657c-0.286,0.061-0.572,0.122-0.858,0.163
				c-1.37,0.286-2.72,0.552-4.11,0.776c-0.634,0.123-1.288,0.205-1.942,0.307c-2.024,0.328-4.091,0.573-6.136,0.777
				c-0.613,0.062-1.227,0.103-1.819,0.185C806.365,589.658,785.936,586.08,767.429,577.409z"/>
			<g>
				<path fill="#BCE3F8" d="M911.681,539.434c-0.859,1.207-1.738,2.393-2.639,3.559
					C909.942,541.826,910.821,540.641,911.681,539.434z"/>
				<path fill="#BCE3F8" d="M925.3,514.117c-0.798,2.127-1.718,4.233-2.658,6.299C923.582,518.351,924.502,516.244,925.3,514.117z"
					/>
				<path fill="#BCE3F8" d="M921.558,522.747c-1.677,3.477-3.538,6.851-5.562,10.163
					C918.02,529.598,919.881,526.224,921.558,522.747z"/>
				<path fill="#BCE3F8" d="M908.326,543.934c-1.084,1.391-2.188,2.74-3.354,4.068C906.139,546.693,907.242,545.324,908.326,543.934
					z"/>
				<path fill="#BCE3F8" d="M909.042,401.215c0.675,0.839,1.31,1.719,1.943,2.577C910.352,402.934,909.717,402.054,909.042,401.215z
					"/>
				<path fill="#BCE3F8" d="M927.018,509.373c-0.43,1.309-0.9,2.617-1.391,3.906C926.117,511.99,926.588,510.682,927.018,509.373z"
					/>
				<path fill="#BCE3F8" d="M929.799,499.762c4.785-19.652,4.458-40.388-1.207-60.02
					C934.257,459.374,934.584,480.109,929.799,499.762z"/>
				<path fill="#BCE3F8" d="M727.695,397.575c4.11-4.907,8.568-9.611,13.599-13.905c-48.854,41.696-54.62,115.131-12.883,163.984
					c41.717,48.834,115.131,54.58,163.965,12.884c-5.03,4.294-10.389,7.976-15.869,11.268
					c35.808-42.76,36.707-106.276-0.716-150.079S775.506,368.904,727.695,397.575z"/>
				<path fill="#BCE3F8" d="M929.349,501.521c-0.511,2.004-1.084,4.009-1.718,5.972
					C928.265,505.508,928.838,503.524,929.349,501.521z"/>
				<path fill="#BCE3F8" d="M913.991,408.147c2.944,4.479,5.562,9.101,7.832,13.845
					C919.554,417.248,916.936,412.626,913.991,408.147z"/>
				<path fill="#BCE3F8" d="M923.07,424.691c2.127,4.765,3.906,9.652,5.379,14.58C926.977,434.344,925.197,429.456,923.07,424.691z"
					/>
			</g>
			<path fill="#99D3EB" d="M929.349,501.521c0.164-0.573,0.307-1.165,0.45-1.759c4.785-19.652,4.458-40.367-1.207-60.02
				c-0.061-0.164-0.102-0.307-0.143-0.471c-1.473-4.928-3.252-9.815-5.379-14.58c-0.408-0.9-0.817-1.82-1.247-2.699
				c-2.27-4.744-4.888-9.366-7.832-13.865c-0.981-1.451-1.983-2.883-3.026-4.335c-0.613-0.858-1.248-1.738-1.923-2.577
				c-1.227-1.574-2.474-3.148-3.783-4.662c-0.654-0.777-1.309-1.533-1.983-2.25c-41.349-46.031-111.613-51.553-159.67-12.576
				c-0.777,0.635-1.555,1.289-2.312,1.943c-5.03,4.294-9.488,8.998-13.599,13.905c47.811-28.671,110.673-19.651,148.096,24.151
				s36.523,107.319,0.716,150.079c5.48-3.292,10.839-6.974,15.869-11.268c0.757-0.675,1.513-1.329,2.249-1.983
				c3.723-3.334,7.158-6.871,10.348-10.553c1.166-1.309,2.27-2.678,3.354-4.068c0.246-0.307,0.471-0.594,0.716-0.921
				c0.9-1.187,1.779-2.352,2.639-3.579c1.533-2.146,2.944-4.294,4.314-6.502c2.045-3.313,3.886-6.708,5.562-10.185
				c0.368-0.757,0.736-1.534,1.084-2.331c0.94-2.065,1.86-4.172,2.658-6.299c0.103-0.286,0.225-0.552,0.327-0.838
				c0.49-1.289,0.961-2.598,1.391-3.906c0.225-0.613,0.43-1.247,0.613-1.881C928.265,505.508,928.838,503.524,929.349,501.521z"/>
			<g>
				<path fill="#717485" d="M1055.666,795.852c-1.002-0.797-1.963-1.697-2.802-2.699
					C1053.703,794.154,1054.664,795.055,1055.666,795.852z"/>
				<path fill="#717485" d="M924.257,641.641c-0.185-0.389-0.389-0.776-0.552-1.186
					C923.868,640.864,924.072,641.252,924.257,641.641z"/>
				<path fill="#717485" d="M1080.165,795.279c-1.022,0.879-2.106,1.636-3.211,2.229
					C1078.059,796.915,1079.143,796.158,1080.165,795.279z"/>
				<path fill="#717485" d="M924.911,623.42c0.45-0.756,0.899-1.472,1.473-2.167C925.811,621.948,925.361,622.664,924.911,623.42z"
					/>
				<path fill="#717485" d="M1055.666,795.852c6.094,4.744,14.499,5.398,21.288,1.656
					C1070.165,801.25,1061.76,800.596,1055.666,795.852z"/>
				<path fill="#717485" d="M949.021,626.855l125.929,147.401c5.849,6.871,15.46,8.548,23.21,4.765
					c-0.675,0.941-1.37,1.84-2.208,2.699c7.157-7.096,7.75-18.588,1.104-26.339L971.147,607.961
					c-6.646-7.75-18.077-8.957-26.195-3.027c0.961-0.654,1.983-1.227,3.006-1.758C943.009,610.251,943.173,620.006,949.021,626.855z
					"/>
				<path fill="#717485" d="M926.384,621.253c0.757-1.022,1.677-1.964,2.699-2.843C928.061,619.289,927.141,620.23,926.384,621.253z
					"/>
			</g>
			<path fill="#5C5D6D" d="M929.083,618.431c-1.022,0.858-1.942,1.8-2.699,2.822c-0.573,0.695-1.022,1.452-1.473,2.167
				c-2.985,5.195-3.456,11.493-1.206,17.035c0.163,0.409,0.367,0.797,0.552,1.186c0.716,1.432,1.575,2.822,2.679,4.111
				l125.929,147.4c0.839,1.002,1.8,1.902,2.802,2.699c6.094,4.744,14.499,5.398,21.288,1.656c1.104-0.593,2.188-1.35,3.211-2.229
				l14.724-12.576c0.388-0.307,0.735-0.654,1.063-0.982c0.838-0.859,1.533-1.758,2.208-2.699c-7.75,3.783-17.361,2.106-23.21-4.765
				L949.021,626.855c-5.849-6.85-6.013-16.604-1.063-23.68c-1.022,0.531-2.045,1.104-3.006,1.758
				c-0.389,0.287-0.757,0.573-1.146,0.9L929.083,618.431L929.083,618.431z"/>
		</g>
		<g>
			<path fill="#C24856" d="M1187.402,309.232c0.062,0.654,0.062,1.289,0.103,1.943c6.952-23.23,9.877-48.077,7.647-73.68
				c-9.447-108.772-105.274-189.282-214.046-179.834c-28.281,2.474-54.58,10.879-77.974,23.721
				c3.824-0.511,7.647-0.961,11.513-1.288C1053.028,68.071,1175.378,170.871,1187.402,309.232z"/>
		</g>
		<g>
			<text transform="matrix(1 0 0 1 1279.6641 653.0879)" fill="#5C5D6D" font-family="'Impact'" font-size="295.0443">CÂMARA</text>
			<g>
				<path fill="none" d="M1344.764,917.445c-3.312-28.486-6.626-62.576-9.959-102.085c-1.901-0.654-3.742-1.35-5.624-2.004
					c-6.176,46.134-10.184,80.919-11.942,104.089H1344.764z"/>
				<path fill="none" d="M2225.344,917.445c-3.374-29.019-6.748-63.824-10.143-104.252c-1.902,0.674-3.763,1.369-5.686,2.023
					c-6.032,45.194-9.959,79.365-11.697,102.229H2225.344z"/>
				<path fill="#D35660" d="M1271.553,719.677l-8.896,66.973c20.653,9.509,42.904,18.425,66.523,26.707
					c1.063-8.058,2.188-16.339,3.396-25.092c0.735,9.325,1.492,18.303,2.229,27.096c22.065,7.566,45.378,14.54,69.692,20.94
					l-17.342-116.624H1271.553z"/>
				<path fill="#D35660" d="M1446.479,719.677v126.89c25.686,5.746,52.434,10.757,79.979,15.112V719.677H1446.479z"/>
				<path fill="#D35660" d="M1674.473,839.553V781.23h53.373v-61.554h-133.372v151.122c41.86,4.622,85.315,7.607,129.957,8.875
					v-40.121H1674.473z"/>
				<path fill="#D35660" d="M1925.818,851.904c5.951-8.221,8.916-24.314,8.916-48.262c0-26.216-4.212-45.295-12.617-57.279
					c-8.425-11.963-19.325-19.406-32.679-22.311c-13.374-2.924-38.936-4.376-76.665-4.376h-56.625v160.591
					c5.275,0.041,10.511,0.164,15.808,0.164c48.016,0,94.845-2.066,140.039-5.931c-5.562-2.985-12.577-5.604-21.329-7.771
					C1908.15,865.074,1919.848,860.145,1925.818,851.904z M1860.462,812.968c0,13.558-1.82,21.554-5.419,24.028
					c-3.62,2.475-9.919,3.701-18.896,3.701v-68.383c9.243,0,15.603,1.513,19.079,4.561c3.497,3.025,5.235,9.427,5.235,19.182
					V812.968z"/>
				<path fill="#D35660" d="M2126.817,781.23v-61.554h-174.782v61.554h47.3v83.209c27.525-3.988,54.212-8.691,79.979-14.049v-69.16
					H2126.817z"/>
				<path fill="#D35660" d="M2152.135,719.677l-15.562,117.36c25.501-6.625,49.877-13.906,72.943-21.82
					c1.146-8.629,2.331-17.504,3.641-26.952c0.695,8.568,1.37,16.83,2.045,24.929c22.167-7.792,43.169-16.094,62.739-24.969
					l-10.204-68.548H2152.135z"/>
			</g>
		</g>
	</g>
</g>
</svg>
